<svg class="icon" viewBox="0 0 1024 1024" xmlns="http://www.w3.org/2000/svg" width="32" height="32"><path d="M839.904 287.116c0-16.195 13.096-29.292 29.291-29.292 16.196 0 29.292 13.097 29.292 29.292v650.71c0 47.985-40.688 86.074-89.974 86.074H201.291c-49.286 0-89.974-37.989-89.974-86.075v-650.71c0-16.194 13.097-29.29 29.292-29.29s29.291 13.096 29.291 29.29v650.71c0 14.796 13.596 27.492 31.491 27.492h607.222c17.795 0 31.49-12.696 31.49-27.492v-650.71zM42.937 192.943c-16.195 0-29.291-13.096-29.291-29.29s13.096-29.292 29.291-29.292h936.826c16.195 0 29.291 13.096 29.291 29.291s-13.096 29.291-29.291 29.291H42.937z" fill="#515151"/><path d="M334.652 147.857h-58.583V81.976C276.07 36.889 312.46 0 357.345 0h312.309c44.887 0 81.276 36.89 81.276 81.976v65.88h-58.583v-65.88c0-12.896-10.397-23.393-22.793-23.393H357.445c-12.396 0-22.793 10.497-22.793 23.393v65.88zM270.871 407.68c0-16.196 13.096-29.292 29.291-29.292s29.291 13.096 29.291 29.292v316.007c0 16.195-13.096 29.291-29.29 29.291-16.196 0-29.292-13.096-29.292-29.291V407.681zm194.343 0c0-16.196 13.096-29.292 29.291-29.292s29.292 13.096 29.292 29.292v316.007c0 16.195-13.097 29.291-29.292 29.291s-29.291-13.096-29.291-29.291V407.681zm194.343 0c0-16.196 13.096-29.292 29.291-29.292s29.292 13.096 29.292 29.292v316.007c0 16.195-13.097 29.291-29.292 29.291s-29.291-13.096-29.291-29.291V407.681z" fill="#515151"/></svg>